<?xml version="1.0" standalone="no"?>
<!DOCTYPE svg PUBLIC "-//W3C//DTD SVG 20010904//EN"
 "http://www.w3.org/TR/2001/REC-SVG-20010904/DTD/svg10.dtd">
<svg version="1.0" xmlns="http://www.w3.org/2000/svg"
 width="512.000000pt" height="512.000000pt" viewBox="0 0 512.000000 512.000000"
 preserveAspectRatio="xMidYMid meet">
<metadata>
Created by potrace 1.15, written by Peter Selinger 2001-2017
</metadata>
<g transform="translate(0.000000,512.000000) scale(0.100000,-0.100000)"
fill="#000000" stroke="none">
<path d="M1289 4619 c-184 -43 -354 -190 -456 -394 -34 -66 -74 -188 -92 -276
l-12 -56 -97 -63 c-242 -159 -436 -409 -526 -680 -49 -146 -66 -257 -66 -425
0 -224 43 -411 138 -600 107 -214 274 -399 471 -520 37 -23 63 -47 66 -59 2
-12 6 -86 9 -166 3 -80 12 -179 21 -220 64 -290 255 -537 481 -623 l59 -22
1258 -3 c1384 -3 1311 -6 1438 58 184 94 338 310 404 570 21 82 28 139 32 263
l6 158 91 62 c50 34 137 106 193 161 197 190 310 400 370 686 25 121 25 402
-1 520 -75 343 -279 646 -564 834 -76 51 -104 75 -108 95 -59 264 -167 464
-316 582 -62 49 -143 91 -217 113 -49 14 -182 16 -1300 15 -685 -1 -1262 -5
-1282 -10z m2586 -929 c185 -21 340 -82 483 -190 189 -142 308 -322 364 -547
31 -127 31 -342 0 -468 -44 -176 -139 -334 -286 -473 -126 -119 -260 -193
-423 -234 -125 -32 -349 -31 -476 0 -175 44 -300 116 -453 264 l-101 98 -415
0 -416 0 -98 -98 c-211 -210 -448 -302 -739 -289 -187 9 -352 63 -501 165
-189 128 -336 336 -396 557 -30 111 -32 385 -4 490 25 97 96 244 156 325 56
75 173 190 241 237 118 81 291 145 439 162 110 12 2514 13 2625 1z m-1100
-2595 l0 -140 -157 -3 -158 -3 0 146 0 146 158 -3 157 -3 0 -140z m400 0 l0
-140 -157 -3 -158 -3 0 146 0 146 158 -3 157 -3 0 -140z m413 88 c42 -57 42
-58 42 -145 l0 -88 -30 0 -30 0 0 81 c0 66 -4 86 -21 110 -17 25 -27 29 -65
29 -45 0 -45 0 -30 -22 12 -16 16 -47 16 -110 l0 -88 -28 0 -27 0 3 75 c4 69
2 78 -22 110 -20 26 -35 35 -57 35 l-29 0 0 -110 0 -110 -25 0 -25 0 0 145 0
145 143 0 143 0 42 -57z"/>
<path d="M1233 3299 c-54 -16 -63 -46 -63 -224 l0 -155 -147 -1 c-163 0 -211
-10 -230 -49 -8 -16 -13 -70 -13 -153 l0 -129 29 -29 29 -29 166 0 166 0 0
-164 c0 -160 1 -166 24 -193 24 -28 26 -28 151 -31 136 -4 174 4 194 41 6 13
12 87 14 182 l2 160 165 5 c179 5 205 12 217 58 5 15 8 79 8 142 0 180 -13
190 -250 190 l-140 0 -2 161 c-2 182 -8 201 -70 218 -46 13 -206 13 -250 0z"/>
<path d="M3726 3298 c-76 -16 -128 -77 -142 -166 -12 -77 35 -159 111 -193
108 -49 235 10 266 123 37 141 -89 268 -235 236z"/>
<path d="M3344 2910 c-110 -26 -173 -131 -145 -237 40 -148 235 -191 334 -74
52 62 59 133 21 209 -39 79 -128 122 -210 102z"/>
<path d="M4106 2905 c-55 -20 -86 -45 -109 -88 -54 -104 -16 -221 88 -268 129
-59 275 37 275 182 0 14 -12 49 -26 77 -42 85 -143 128 -228 97z"/>
<path d="M3716 2518 c-124 -34 -174 -207 -89 -309 97 -115 293 -74 333 69 15
57 12 83 -16 140 -42 84 -136 125 -228 100z"/>
<path d="M2510 1095 l0 -75 115 0 115 0 0 75 0 75 -115 0 -115 0 0 -75z"/>
<path d="M2910 1095 l0 -75 115 0 115 0 0 75 0 75 -115 0 -115 0 0 -75z"/>
</g>
</svg>
